<svg width="136" height="142" viewBox="0 0 136 142" fill="none" xmlns="http://www.w3.org/2000/svg">
<path d="M38.4347 138.148C33.9499 139.97 28.3645 138.575 24.5934 134.687C23.3184 133.371 22.7221 132.436 22.1861 130.899C21.5232 128.995 21.501 128.69 21.8594 126.42C22.4366 122.762 23.2327 120.928 25.1706 118.78C25.7669 118.117 25.7669 118.114 24.8598 117.906C22.6555 117.4 19.2903 115.4 15.2401 112.19C10.768 108.647 9.12503 106.671 6.39737 101.56C3.84415 96.7703 3.45721 95.4239 3.26056 90.7006C3.10515 86.9607 3.14638 86.5945 4.10741 83.2873C6.4164 75.3264 8.88081 71.1054 14.5899 65.3261C19.4013 60.4545 20.8825 59.338 27.2766 55.7766C29.3287 54.6328 32.6971 52.548 36.3794 50.1395C38.1365 48.9897 42.5832 45.389 44.5782 43.4978C51.3435 37.0861 54.4422 30.4808 54.2931 22.7892C54.2011 17.963 53.2718 14.9009 51.0326 12.0294C48.2891 8.51639 46.4051 7.40894 41.7713 6.58289C38.6123 6.02009 36.0559 6.24097 32.3513 7.39078C29.1479 8.38325 24.2064 10.58 22.0751 11.9537C19.2491 13.7783 15.2749 17.8238 13.9175 20.2565C12.487 22.8224 10.4667 28.6834 10.4667 30.269C10.4667 31.6155 11.0217 33.3614 11.4499 33.3614C11.6053 33.3614 11.7353 33.6004 11.7385 33.8909C11.7417 34.6231 13.3656 37.2465 14.5359 38.4084C15.6968 39.5612 17.4539 40.3389 20.5114 41.053C22.6079 41.5432 22.9726 41.5492 25.1294 41.1226C29.7791 40.2057 32.4592 38.7836 35.3549 35.6943C37.5371 33.3614 39.4084 29.0677 40.0015 25.0192L40.3884 22.3807L41.0101 23.1038C41.5619 23.7544 41.6095 24.1599 41.4509 27.0071C41.1369 32.7078 39.4877 36.2056 35.2915 40.0696C31.736 43.3435 27.7302 44.8595 22.6333 44.8595C16.1757 44.8595 11.1644 42.0273 8.08788 36.6413L6.8192 34.4204L6.83189 30.1842C6.84458 25.4337 7.17443 24.1659 9.59444 19.5939C12.1032 14.8555 15.7253 10.6526 19.4965 8.09882C22.6999 5.92931 26.8199 3.82637 29.2526 3.11531C30.5213 2.74313 31.847 2.31044 32.2023 2.15007C32.5575 1.99273 35.5484 1.75671 38.8501 1.62963C44.2103 1.42387 45.0794 1.45716 46.9285 1.95944C52.6375 3.50564 54.236 4.3922 56.5958 7.31514C59.9451 11.4696 61.1059 14.3078 61.6134 19.5878L61.9623 23.2249L65.2069 26.2507C66.9926 27.9149 68.6102 29.573 68.7973 29.9361C69.4031 31.098 69.1715 32.6987 68.0107 35.4098C67.3859 36.8622 66.5454 38.8683 66.1394 39.8669C65.7334 40.8654 64.9088 42.7051 64.3062 43.9517C63.066 46.5176 61.6673 50.5359 61.9274 50.787C62.0225 50.8778 62.8789 50.5329 63.8272 50.0215C67.167 48.2211 71.0365 47.5887 74.0591 48.3452C78.0682 49.3467 81.1098 51.1895 83.0763 53.8007L84.0309 55.0716L86.7078 55.2047C88.9217 55.3167 89.7495 55.5103 91.5193 56.3424C94.0345 57.5225 96.1341 59.4893 96.8858 61.3683C97.4535 62.7874 97.7009 62.9478 98.3797 62.3305C99.6801 61.1535 102.642 59.574 105.142 58.7298C107.812 57.8281 108.285 57.7646 112.437 57.7434C116.417 57.7222 117.09 57.7948 118.92 58.4605C123.658 60.1852 129.256 66.0765 131.099 71.2839C131.657 72.8604 131.762 73.9012 131.771 77.9921C131.781 82.5762 131.733 82.9635 130.867 85.2541C129.643 88.5038 127.413 92.7188 125.748 94.9367C123.087 98.4769 116.953 103.584 110.055 108.005C107.352 109.736 103.743 111.524 99.7847 113.086C98.2972 113.673 96.4354 114.483 95.6457 114.883C94.8591 115.282 94.0313 115.67 93.8093 115.742C93.5365 115.833 93.6761 116.136 94.2438 116.686C94.7037 117.128 95.4173 118.341 95.8296 119.376C96.4576 120.962 96.5782 121.815 96.5782 124.741C96.5782 128.057 96.5306 128.305 95.5759 130.048C93.6348 133.591 88.9471 136.542 85.2647 136.542C82.8828 136.542 80.4786 136.042 78.417 135.123C76.4855 134.26 74.2431 131.849 73.0252 129.331C72.3179 127.867 72.2576 127.428 72.375 124.49C72.4669 122.139 72.6572 120.98 73.0759 120.229L73.6532 119.198L70.0501 119.406C58.1975 120.096 54.8577 120.181 50.1953 119.915C47.4581 119.757 45.1618 119.682 45.0952 119.742C45.0286 119.806 45.3014 120.65 45.701 121.618C46.2878 123.044 46.4305 123.991 46.4464 126.572C46.4654 129.667 46.4305 129.83 45.2728 132.066C43.8456 134.82 41.508 136.899 38.4347 138.148ZM11.859 94.7491C12.1286 95.1455 13.1594 92.9215 14.7928 88.4312C15.313 87.0091 20.2069 77.8015 20.5875 77.5383C20.7081 77.4566 21.1902 76.7485 21.6627 75.9679C23.3247 73.2265 26.6455 70.7483 29.8933 69.8285C31.8026 69.2869 32.7161 69.2596 34.34 69.6893C35.8529 70.0887 39.1071 72.9693 40.5978 75.2235C41.2099 76.1464 41.7808 76.9089 41.8664 76.918C41.9521 76.924 42.3802 76.4187 42.8148 75.7954C44.667 73.1387 48.121 70.7453 51.3974 69.8436C52.7961 69.4593 53.5066 69.423 54.8577 69.6681C56.4404 69.9556 59.1712 71.0781 60.2654 71.8921C61.1884 72.5789 62.3778 74.3914 63.2722 76.4792C64.4394 79.1934 64.5821 79.3356 65.2577 78.44C66.3392 77.0118 68.81 74.8362 70.0152 74.2492C72.0863 73.2416 76.1207 72.815 76.1207 73.6077C76.1207 73.7348 76.4886 73.9315 76.9422 74.0374C77.3926 74.1463 78.4424 74.8423 79.2734 75.5836C80.1044 76.3249 80.8624 76.9331 80.9576 76.9331C81.0527 76.9331 81.132 76.4671 81.132 75.8952C81.132 74.3733 81.5285 72.352 81.9979 71.4866C83.2983 69.0872 86.6476 67.6317 91.5383 67.3382C95.0875 67.1264 97.7834 67.8042 100.774 69.6621C102.985 71.0358 103.727 71.1659 110.216 71.3081C112.31 71.3535 117.495 71.5593 121.742 71.765C125.986 71.9708 129.529 72.0736 129.615 71.995C129.849 71.768 127.382 67.4774 125.71 65.199C123.106 61.6527 121.663 60.5907 117.597 59.226C115.307 58.4544 114.895 58.4121 111.412 58.5603C106.166 58.7873 102.75 60.1186 99.1314 63.3502C97.7802 64.5545 97.0539 65.0265 97.0539 64.7058C97.0539 63.6498 95.1255 60.627 93.638 59.3501C92.7848 58.6209 91.2402 57.6133 90.2094 57.114C88.4047 56.2426 88.1827 56.2093 84.4464 56.2547C82.2897 56.2819 80.5611 56.179 80.5611 56.0277C80.5611 55.8764 80.7673 55.7524 81.0178 55.7524C82.1216 55.7524 81.8171 54.2365 80.4628 52.9868C76.5838 49.4042 71.2649 48.5177 66.3773 50.6388C64.2047 51.5798 61.5278 53.3771 60.2527 54.7508C59.149 55.937 57.7979 56.9627 57.338 56.9627C56.7353 56.9627 57.1857 55.0595 58.2419 53.1472C58.8731 52.0004 60.0022 49.4284 60.7475 47.4314C62.6632 42.3057 64.6107 37.4341 65.134 36.4598C65.3782 36.0029 65.7588 34.8682 65.9745 33.9363C66.5168 31.6064 66.0887 30.4717 64.1444 29.0859C61.5056 27.2099 60.5794 26.9557 60.5794 28.1176C60.5794 29.5095 55.1431 40.2057 53.9157 41.2285C53.8174 41.3102 53.0435 42.23 52.1935 43.2709C51.3466 44.3118 50.5664 45.162 50.4585 45.162C50.3539 45.162 49.6942 45.6795 48.9996 46.3088C46.9316 48.1879 40.0617 53.0292 39.4686 53.0292C39.3735 53.0292 37.9843 53.9248 36.3794 55.0171C34.7745 56.1125 32.6209 57.577 31.5933 58.2699C25.437 62.4334 17.8694 69.9223 14.7199 74.9663C13.7874 76.458 12.7281 79.6654 12.043 83.0543C11.6116 85.1875 11.4721 94.1742 11.859 94.7491ZM48.6856 117.782C48.5587 117.978 50.6901 118.084 54.8513 118.084C60.8014 118.084 61.2138 118.048 61.2138 117.53C61.2138 117.228 60.9981 115.518 60.7348 113.733C60.3796 111.306 60.294 108.671 60.3955 103.315C60.5477 95.4178 61.0647 90.9971 62.3492 86.6157C64.0937 80.6579 64.0556 79.623 61.9528 76.1948C59.8626 72.7877 57.7693 71.4503 54.2138 71.2476C50.7377 71.0509 49.0376 71.9042 44.7749 75.9739C42.9734 77.6956 41.4509 79.0572 41.397 79.0028C41.3399 78.9453 40.5597 77.8499 39.6621 76.567C37.7274 73.7984 36.1352 72.4216 34.045 71.7045C31.2698 70.7574 29.3668 71.1629 26.7152 73.2688C25.1738 74.4913 21.5676 78.8575 21.5676 79.499C21.5676 79.6079 21.2219 80.1314 20.7969 80.6609C19.3252 82.5006 15.3606 91.451 14.4725 94.9367C13.4766 98.84 13.4861 98.9943 14.8817 101.612C17.3365 106.223 20.2926 109.049 24.6854 110.989L26.9848 112.005L26.7343 109.675C26.3854 106.432 26.4901 99.3483 26.9246 96.4496C27.1276 95.1182 27.5938 92.9397 27.9649 91.6083C28.5453 89.5296 28.853 88.9849 30.1343 87.7504C31.5553 86.3827 31.7107 86.3131 33.3695 86.3131C35.6055 86.3131 37.2611 87.3933 39.0341 90.0137C39.7255 91.0364 40.3504 91.926 40.4201 91.9926C40.4867 92.0592 40.7912 91.6174 41.0925 91.0092C41.3938 90.404 42.5547 89.1695 43.6743 88.2618C45.4473 86.8275 45.8818 86.6157 47.0648 86.6157C49.3009 86.6157 52.0856 87.2753 53.6144 88.168C55.2668 89.1332 57.5441 91.6507 58.391 93.4419C60.3447 97.5843 60.4779 103.563 58.705 107.494C58.3688 108.244 58.0072 109.058 57.9057 109.309C56.6973 112.263 51.2927 117.479 49.4436 117.479C49.1328 117.479 48.7934 117.615 48.6856 117.782ZM86.4287 109.533C86.4287 114.831 86.4922 115.636 86.9045 115.524C87.1677 115.452 89.1247 114.98 91.2592 114.474C93.3906 113.972 95.6235 113.367 96.2166 113.128L97.2981 112.698L96.7463 110.474C96.4418 109.252 96.0897 107.576 95.9597 106.753L95.7281 105.252L98.0562 107.222C99.3375 108.305 100.841 109.494 101.399 109.866L102.414 110.541L105.84 108.855C110.007 106.81 112.912 105.137 112.912 104.786C112.912 104.64 111.974 104.029 110.825 103.427C109.674 102.825 107.302 101.282 105.551 99.9959C103.8 98.7129 102.065 97.4572 101.694 97.2091C101.323 96.961 100.835 96.5918 100.609 96.3861C100.387 96.1833 99.7784 95.7779 99.2614 95.4874C97.9356 94.74 98.0086 94.0562 99.3883 94.3043C101.044 94.6008 103.886 93.4268 105.713 91.69C107.847 89.6657 108.206 88.6642 108.247 84.6671C108.282 81.1904 107.866 79.6382 105.947 76.0526C105.218 74.6849 100.965 70.2763 100.378 70.2763C100.149 70.2763 99.2551 69.9374 98.3955 69.5259C93.8188 67.3322 87.2661 67.9737 84.0468 70.9299C82.9557 71.9314 82.8162 72.2401 82.6068 74.0888C82.2929 76.9059 82.629 81.2328 83.3522 83.5899C83.9802 85.6474 84.3418 87.7837 85.1632 94.3315C85.436 96.495 85.8293 99.424 86.0418 100.837C86.2543 102.25 86.4287 106.165 86.4287 109.533ZM62.0574 116.647L62.2477 117.782H70.0247L70.1516 114.529C70.3324 109.899 71.4647 108.038 74.37 107.588C75.3468 107.436 75.6228 107.554 76.7043 108.589C77.8239 109.66 77.9667 109.981 78.3124 112.25C78.5185 113.618 78.601 115.198 78.49 115.757L78.2902 116.777L80.1393 116.526C81.1574 116.387 82.7749 116.169 83.7328 116.042L85.4772 115.812L85.75 112.332C85.9339 109.975 85.8991 107.736 85.6422 105.376C85.4296 103.46 85.1442 100.737 85.0015 99.3241C84.8619 97.9111 84.6621 96.2741 84.5606 95.6932C84.4591 95.1122 84.161 93.0698 83.8977 91.1544C83.33 87.0272 82.7749 84.1587 82.4578 83.7412C82.3341 83.5748 81.9186 82.5672 81.538 81.5051C81.1606 80.44 80.6531 79.2146 80.412 78.7819C79.7872 77.6442 77.4624 75.4323 76.5457 75.0995C74.4429 74.337 70.9287 75.1358 68.8227 76.8544C66.7642 78.5368 63.8907 84.2465 63.0946 88.2345C61.9496 93.9805 61.4421 98.3317 61.4072 102.653C61.3724 107.361 61.7054 114.529 62.0574 116.647ZM35.6816 113.654C36.6807 113.766 36.871 113.751 40.4392 113.237C43.7028 112.765 47.3947 110.949 49.9606 108.553C51.058 107.527 52.739 105.264 53.3511 103.99C54.3724 101.857 54.3566 97.2151 53.3194 94.6977C52.4757 92.6583 50.2524 90.3707 48.2955 89.5265C47.0648 88.997 46.9189 88.994 45.6185 89.4721C43.8487 90.1196 41.9869 91.7172 41.3748 93.1091C41.1116 93.7112 40.7754 94.1349 40.6295 94.0471C40.4836 93.9624 39.7382 93.0607 38.9738 92.044C38.2095 91.0304 37.3404 89.8866 37.0391 89.5054C36.7378 89.1241 35.8814 88.6612 35.1361 88.4796C33.9467 88.1891 33.601 88.2285 32.3513 88.8185C30.553 89.6657 29.7981 90.9275 28.853 94.6735C28.225 97.1637 28.1584 97.9958 28.3328 101.224C28.5295 104.789 29.2843 108.828 30.3088 111.784L30.8004 113.198L32.7668 113.373C33.8452 113.467 35.1583 113.594 35.6816 113.654ZM110.832 102.483C111.869 103.076 113.055 103.56 113.471 103.56C114.241 103.56 116.081 102.462 117.876 100.931C118.977 99.9928 119.329 98.5344 119.307 95.0002C119.294 92.7127 120.118 83.6716 120.379 83.2692C120.48 83.1118 121.019 82.7487 121.574 82.4673C122.821 81.838 128.489 81.7805 129.262 82.3917C129.523 82.5974 129.83 82.6822 129.941 82.5732C130.411 82.1284 130.626 78.7153 130.347 76.1766C130.185 74.6789 130.046 73.1811 130.04 72.8483C130.033 72.3913 129.963 72.3429 129.754 72.6546C129.542 72.9753 128.923 73.0237 126.985 72.8725C125.612 72.7635 120.563 72.5426 115.767 72.3823C110.971 72.2219 106.188 72.0071 105.142 71.9042L103.239 71.7136L104.587 73.048C105.329 73.7832 105.935 74.5367 105.935 74.7243C105.935 74.9149 106.058 75.1116 106.211 75.1691C106.801 75.3839 108.142 78.4702 108.792 81.1117C108.973 81.847 109.11 82.3675 109.201 82.897C109.468 84.4553 109.338 86.0741 108.761 93.3149C108.732 93.687 108.7 94.0774 108.669 94.4828C108.279 99.3574 108.256 100.761 108.561 101.043C108.773 101.243 109.795 101.89 110.832 102.483ZM75.312 99.197C74.1384 99.666 73.9196 99.6751 72.3972 99.3332C69.4919 98.6736 68.8131 96.1319 70.1167 90.8246C70.8462 87.8593 71.7184 86.3736 73.0949 85.7412C74.1353 85.2662 74.8267 85.5204 75.3246 86.5643C75.4959 86.9243 75.7401 87.2209 75.8702 87.2209C75.997 87.2209 76.4094 88.1891 76.7868 89.3692C77.3513 91.1393 77.4465 92.0349 77.3228 94.4405C77.1547 97.7931 76.8122 98.601 75.312 99.197ZM120.674 95.5358C120.797 96.8036 121.013 97.8021 121.152 97.7507C121.432 97.6509 123.55 95.206 125.282 92.982C126.833 90.991 129.05 86.7004 129.272 85.2541C129.456 84.0559 129.446 84.0407 128.168 83.6655C125.165 82.785 122.399 83.4598 121.609 85.2662C120.943 86.7821 120.401 92.7581 120.674 95.5358ZM95.8645 88.4161L95.8423 88.4221C94.9733 88.6521 94.5895 88.755 94.266 88.6581C94.0059 88.5795 93.7902 88.3707 93.3906 87.9925C92.5406 87.1785 92.4645 86.6823 92.6009 82.6822C92.7309 78.7819 93.3113 78.1434 96.7304 78.1434C98.0942 78.1434 99.8609 79.154 100.454 80.2706C100.993 81.2842 100.955 83.5717 100.384 84.4976C100.127 84.9152 99.8355 85.472 99.7308 85.7382C99.6262 86.0045 98.9855 86.5491 98.3067 86.9485C97.628 87.348 97.0666 87.7716 97.0634 87.8866C97.0571 88.0046 96.5179 88.2406 95.8645 88.4161ZM71.9975 97.9111C72.2576 98.0049 73.114 98.0533 73.8974 98.02C76.0446 97.9323 76.2539 97.315 75.7623 92.4434C75.4674 89.5023 75.22 88.3495 74.7188 87.6021C73.9703 86.4886 73.5707 86.3888 72.8793 87.1452C71.5757 88.5704 70.7289 91.5054 70.7289 94.5918C70.7289 96.7764 71.0302 97.5661 71.9975 97.9111ZM80.0061 132.799C81.7759 133.582 85.2964 133.71 87.2217 133.062C88.9756 132.472 90.831 130.808 91.8492 128.911C92.9022 126.95 92.9085 123.997 91.8682 121.866C91.1355 120.366 90.2221 119.358 89.8859 119.676C89.7907 119.77 89.9366 120.257 90.2126 120.765C91.0277 122.269 90.8755 125.516 89.9049 127.373C88.3191 130.411 84.7636 132.197 80.837 131.93C79.6381 131.849 78.6581 131.876 78.6581 131.991C78.6581 132.106 79.2639 132.469 80.0061 132.799ZM94.2787 86.8124C94.6751 87.6445 95.0113 87.6838 96.4608 87.0756C98.0023 86.4281 98.4653 86.0136 99.2265 84.5854C100.254 82.667 100.134 81.3236 98.8301 80.0799C97.739 79.0391 96.6384 78.8 94.9289 79.2388C93.6126 79.5746 93.1876 84.5249 94.2787 86.8124ZM71.5281 116.602C71.7089 117.379 71.7311 117.385 74.1543 117.249C77.3038 117.074 77.4941 116.865 77.215 113.848C76.9771 111.258 76.3079 109.893 75.0741 109.479C72.8475 108.734 71.1919 110.641 71.2902 113.833C71.322 114.922 71.4298 116.169 71.5281 116.602ZM31.6282 134.006C34.784 135.017 38.2697 134.466 40.0395 132.678C41.7522 130.947 42.6371 128.974 42.6498 126.859C42.6594 124.759 42.2978 122.623 41.9299 122.623C41.8093 122.623 41.6825 123.576 41.6539 124.741C41.5302 129.597 39.0722 132.644 34.9014 133.116C32.5607 133.383 30.7274 132.995 28.9164 131.858C27.0166 130.666 26.8009 130.841 28.3772 132.299C29.0655 132.932 30.2929 133.576 31.6282 134.006ZM103.61 97.4058L106.41 99.3544L106.626 98.0533C106.743 97.3362 106.851 95.7597 106.864 94.5434L106.886 92.3375L105.437 93.3935C104.641 93.9715 103.274 94.6735 102.398 94.9518L100.806 95.4571L103.61 97.4058ZM79.451 119.748C79.9426 119.909 81.6902 119.621 85.3186 118.783C89.3308 117.86 90.9167 117.285 91.1641 116.665C91.3068 116.317 91.2148 116.257 90.793 116.42C87.6435 117.645 84.1261 118.281 78.896 118.562C77.0215 118.665 75.4864 118.862 75.4864 118.998C75.4864 119.137 76.3079 119.34 77.3101 119.446C78.3124 119.555 79.2766 119.691 79.451 119.748ZM97.5804 110.25C97.8722 111.397 98.2655 112.329 98.4526 112.32C98.9633 112.302 101.716 110.852 101.275 110.837C101.066 110.828 100.032 110.06 98.976 109.125C97.9198 108.193 97.0539 107.594 97.0539 107.796C97.0539 107.999 97.2918 109.104 97.5804 110.25ZM31.7741 119.537C33.5249 119.936 35.4786 120.133 37.5846 120.127L40.7563 120.115L37.9018 119.848C36.3318 119.703 33.7881 119.367 32.253 119.104C30.7148 118.841 29.3858 118.695 29.2938 118.78C29.205 118.868 30.3215 119.207 31.7741 119.537Z" fill="#1B1C0F"/>
<path d="M48.6852 117.782C48.7931 117.615 49.1324 117.479 49.4433 117.479C51.2924 117.479 56.6969 112.262 57.9053 109.309C58.0068 109.058 58.3684 108.244 58.7046 107.494C60.4776 103.563 60.3444 97.5842 58.3906 93.4419C57.5438 91.6506 55.2665 89.1331 53.614 88.1679C52.0853 87.2753 49.3005 86.6157 47.0645 86.6157C45.8815 86.6157 45.4469 86.8275 43.674 88.2617C42.5543 89.1694 41.3935 90.404 41.0922 91.0091C40.7909 91.6173 40.4864 92.0591 40.4198 91.9925C40.35 91.926 39.7252 91.0364 39.0338 90.0137C37.2608 87.3933 35.6052 86.3131 33.3691 86.3131C31.7103 86.3131 31.5549 86.3827 30.134 87.7503C28.8526 88.9849 28.545 89.5295 27.9645 91.6083C27.5935 92.9396 27.1272 95.1182 26.9242 96.4496C26.4897 99.3483 26.385 106.432 26.7339 109.675L26.9845 112.005L24.685 110.989C20.2922 109.049 17.3362 106.223 14.8813 101.612C13.4858 98.9943 13.4762 98.84 14.4722 94.9367C15.3602 91.4509 19.3249 82.5006 20.7965 80.6609C21.2215 80.1313 21.5672 79.6079 21.5672 79.4989C21.5672 78.8575 25.1735 74.4912 26.7149 73.2688C29.3664 71.1628 31.2695 70.7574 34.0447 71.7044C36.1348 72.4216 37.727 73.7983 39.6618 76.5669C40.5594 77.8499 41.3396 78.9452 41.3967 79.0027C41.4506 79.0572 42.973 77.6956 44.7745 75.9739C49.0373 71.9041 50.7373 71.0509 54.2135 71.2475C57.769 71.4503 59.8623 72.7877 61.9524 76.1948C64.0553 79.623 64.0933 80.6578 62.3489 86.6157C61.0644 90.997 60.5474 95.4178 60.3951 103.315C60.2936 108.671 60.3793 111.306 60.7345 113.733C60.9978 115.518 61.2134 117.228 61.2134 117.53C61.2134 118.048 60.8011 118.084 54.851 118.084C50.6897 118.084 48.5584 117.978 48.6852 117.782ZM86.4284 109.533C86.4284 106.165 86.254 102.25 86.0415 100.837C85.8289 99.4239 85.4357 96.4949 85.1629 94.3315C84.3414 87.7836 83.9799 85.6474 83.3519 83.5899C82.6287 81.2327 82.2925 76.9058 82.6065 74.0888C82.8158 72.24 82.9554 71.9314 84.0465 70.9298C87.2657 67.9736 93.8185 67.3321 98.3952 69.5259C99.2547 69.9374 100.149 70.2763 100.378 70.2763C100.964 70.2763 105.218 74.6849 105.947 76.0525C107.866 79.6381 108.281 81.1904 108.246 84.667C108.205 88.6641 107.847 89.6657 105.712 91.6899C103.885 93.4268 101.044 94.6008 99.3879 94.3043C98.0083 94.0561 97.9353 94.74 99.2611 95.4874C99.7781 95.7778 100.387 96.1833 100.609 96.386C100.834 96.5918 101.323 96.9609 101.694 97.209C102.065 97.4572 103.8 98.7129 105.551 99.9958C107.301 101.282 109.674 102.825 110.825 103.427C111.973 104.029 112.912 104.64 112.912 104.786C112.912 105.137 110.007 106.81 105.839 108.855L102.414 110.541L101.399 109.866C100.841 109.494 99.3372 108.305 98.0558 107.221L95.7278 105.252L95.9593 106.752C96.0894 107.575 96.4414 109.252 96.7459 110.474L97.2978 112.698L96.2162 113.128C95.6231 113.367 93.3903 113.972 91.2589 114.474C89.1243 114.98 87.1674 115.452 86.9042 115.524C86.4918 115.636 86.4284 114.831 86.4284 109.533ZM62.0571 116.647C61.705 114.529 61.372 107.361 61.4069 102.652C61.4418 98.3316 61.9493 93.9805 63.0942 88.2345C63.8903 84.2465 66.7639 78.5367 68.8223 76.8544C70.9283 75.1357 74.4426 74.3369 76.5454 75.0994C77.462 75.4323 79.7869 77.6441 80.4117 78.7818C80.6527 79.2145 81.1602 80.44 81.5376 81.5051C81.9182 82.5671 82.3337 83.5747 82.4574 83.7411C82.7746 84.1587 83.3297 87.0272 83.8974 91.1544C84.1606 93.0697 84.4588 95.1122 84.5603 95.6931C84.6618 96.2741 84.8616 97.911 85.0011 99.3241C85.1439 100.737 85.4293 103.46 85.6418 105.376C85.8987 107.736 85.9336 109.975 85.7497 112.332L85.4769 115.812L83.7325 116.042C82.7746 116.169 81.157 116.387 80.1389 116.526L78.2898 116.777L78.4896 115.757C78.6007 115.198 78.5182 113.618 78.312 112.25C77.9663 109.981 77.8236 109.66 76.704 108.589C75.6224 107.554 75.3465 107.436 74.3696 107.588C71.4643 108.038 70.332 109.899 70.1513 114.529L70.0244 117.782H62.2474L62.0571 116.647ZM110.831 102.483C109.794 101.89 108.773 101.242 108.56 101.043C108.256 100.761 108.278 99.3574 108.668 94.4828C108.7 94.0773 108.732 93.687 108.76 93.3148V93.3118C109.338 86.074 109.468 84.4552 109.201 82.8969C109.109 82.3674 108.973 81.847 108.792 81.1117C108.142 78.4702 106.8 75.3838 106.21 75.169C106.058 75.1115 105.934 74.9148 105.934 74.7242C105.934 74.5366 105.329 73.7832 104.586 73.0479L103.238 71.7135L105.141 71.9042C106.188 72.007 110.971 72.2219 115.767 72.3822C120.562 72.5426 125.612 72.7635 126.985 72.8724C128.923 73.0237 129.541 72.9753 129.754 72.6545C129.963 72.3429 130.033 72.3913 130.039 72.8482C130.046 73.181 130.185 74.6788 130.347 76.1766C130.626 78.7153 130.41 82.1284 129.941 82.5732C129.83 82.6821 129.522 82.5974 129.262 82.3916C128.488 81.7804 122.82 81.8379 121.574 82.4673C121.019 82.7487 120.48 83.1118 120.378 83.2691C120.118 83.6715 119.294 92.7127 119.306 95.0002C119.328 98.5343 118.976 99.9928 117.876 100.931C116.081 102.462 114.241 103.56 113.47 103.56C113.055 103.56 111.869 103.076 110.831 102.483ZM75.3116 99.197C76.8118 98.6009 77.1544 97.793 77.3225 94.4404C77.4462 92.0349 77.351 91.1393 76.7865 89.3692C76.409 88.1891 75.9967 87.2208 75.8698 87.2208C75.7398 87.2208 75.4956 86.9243 75.3243 86.5642C74.8263 85.5203 74.1349 85.2661 73.0946 85.7412C71.7181 86.3736 70.8459 87.8593 70.1164 90.8246C68.8128 96.1319 69.4915 98.6735 72.3968 99.3332C73.9192 99.6751 74.1381 99.666 75.3116 99.197ZM95.8642 88.416C96.5176 88.2405 97.0567 88.0045 97.0631 87.8865C97.0663 87.7715 97.6277 87.3479 98.3064 86.9485C98.9851 86.5491 99.6258 86.0044 99.7305 85.7382C99.8352 85.4719 100.127 84.9152 100.384 84.4976C100.955 83.5717 100.993 81.2842 100.454 80.2705C99.8605 79.154 98.0939 78.1434 96.7301 78.1434C93.311 78.1434 92.7306 78.7818 92.6005 82.6821C92.4641 86.6822 92.5403 87.1785 93.3903 87.9924C93.7899 88.3706 94.0056 88.5794 94.2657 88.6581C94.5892 88.7549 94.9729 88.652 95.842 88.4221L95.8642 88.416ZM80.0057 132.799C79.2635 132.469 78.6577 132.106 78.6577 131.991C78.6577 131.876 79.6378 131.849 80.8367 131.93C84.7633 132.197 88.3187 130.411 89.9046 127.373C90.8751 125.516 91.0274 122.269 90.2122 120.765C89.9363 120.257 89.7904 119.77 89.8855 119.676C90.2217 119.358 91.1352 120.366 91.8679 121.866C92.9082 123.997 92.9018 126.95 91.8488 128.91C90.8307 130.808 88.9753 132.472 87.2213 133.062C85.2961 133.709 81.7755 133.582 80.0057 132.799ZM31.6279 134.006C30.2926 133.576 29.0651 132.932 28.3769 132.299C26.8005 130.841 27.0162 130.665 28.9161 131.858C30.7271 132.995 32.5603 133.383 34.901 133.116C39.0718 132.644 41.5299 129.597 41.6536 124.741C41.6821 123.576 41.809 122.623 41.9295 122.623C42.2974 122.623 42.659 124.759 42.6495 126.859C42.6368 128.974 41.7519 130.947 40.0392 132.678C38.2694 134.466 34.7837 135.017 31.6279 134.006ZM79.4507 119.748C79.2762 119.691 78.312 119.555 77.3098 119.446C76.3075 119.34 75.4861 119.137 75.4861 118.998C75.4861 118.862 77.0212 118.665 78.8956 118.562C84.1257 118.281 87.6432 117.645 90.7927 116.42C91.2145 116.257 91.3065 116.317 91.1637 116.665C90.9163 117.285 89.3305 117.86 85.3183 118.783C81.6899 119.621 79.9423 119.909 79.4507 119.748ZM38.1393 31.3038C38.539 30.1782 38.761 28.7772 39.3446 24.6621C39.5603 23.122 39.8394 21.8632 39.9599 21.8632C40.0836 21.8632 40.4547 22.1507 40.7877 22.5017C41.0129 22.7437 41.1588 22.9858 41.2476 23.4245C41.181 23.3156 41.1017 23.2127 41.0097 23.1038L40.3881 22.3806L40.0011 25.0191C39.6903 27.1523 39.0211 29.3551 38.1393 31.3038ZM31.7738 119.537C30.3211 119.207 29.2047 118.868 29.2935 118.78C29.3855 118.695 30.7144 118.841 32.2527 119.104C33.7878 119.367 36.3315 119.703 37.9015 119.848L40.756 120.114L37.5843 120.127C35.4783 120.133 33.5245 119.936 31.7738 119.537ZM11.624 25.7211C10.9357 28.4141 10.923 31.0799 11.624 33.4703C11.5732 33.4037 11.513 33.3613 11.4495 33.3613C11.0214 33.3613 10.4663 31.6154 10.4663 30.2689C10.4663 29.4883 10.9548 27.6728 11.624 25.7211ZM52.4469 120.018C48.5869 120.06 45.6119 120.16 45.5072 120.26C45.393 120.369 45.5421 121.128 45.8434 121.975C45.799 121.86 45.7514 121.739 45.7007 121.618C45.301 120.65 45.0283 119.806 45.0949 119.742C45.1615 119.682 47.4578 119.757 50.195 119.915C50.9688 119.957 51.7015 119.993 52.4469 120.018ZM41.2095 29.4792C40.8955 32.1177 40.1153 34.2116 38.6373 36.3024C40.017 34.2751 40.8163 32.1238 41.2095 29.4792ZM67.3253 119.564C67.0811 119.582 66.84 119.603 66.6053 119.624C65.5808 119.715 63.6398 119.806 61.353 119.872C63.0372 119.797 64.9909 119.694 67.3253 119.564ZM15.9597 17.4788C15.0113 18.6165 14.1962 19.8057 13.5207 21.016C13.657 20.7406 13.7902 20.4865 13.9171 20.2565C14.3612 19.4577 15.0875 18.4894 15.9597 17.4788ZM23.5781 11.0883C21.8305 12.0626 20.3747 13.1307 18.7984 14.565C19.9243 13.5301 21.0725 12.6012 22.0747 11.9537C22.4839 11.6904 22.9945 11.3969 23.5781 11.0883ZM11.735 33.8364C11.9538 34.5021 12.2266 35.1435 12.5596 35.7578C12.0807 34.9559 11.7413 34.2267 11.7382 33.8908C11.7382 33.8727 11.7382 33.8545 11.735 33.8364ZM73.5989 119.294L71.9496 119.297L73.6528 119.198L73.5989 119.294ZM46.3667 124.351C46.4333 125.019 46.465 125.794 46.465 126.723C46.465 128.181 46.4524 128.968 46.2938 129.667C46.4524 128.956 46.4555 128.139 46.446 126.572C46.4397 125.658 46.4175 124.947 46.3667 124.351ZM34.7742 6.73718C37.2798 6.18043 39.3478 6.15319 41.7709 6.58286C39.4366 6.16832 37.3084 6.18043 34.7742 6.73718ZM32.9346 7.21223C31.7103 7.57533 30.375 8.05341 28.8812 8.65252C30.115 8.15326 31.3234 7.70846 32.351 7.39075C32.5508 7.32721 32.7443 7.26972 32.9346 7.21223ZM31.0633 39.1346C29.4108 40.0393 27.5332 40.6475 25.1291 41.1225C27.5173 40.6505 29.4045 40.0363 31.0633 39.1346ZM14.3326 38.1996C14.4024 38.2692 14.469 38.3388 14.5388 38.4084C15.1319 38.9984 15.8804 39.4916 16.8826 39.9273C15.8804 39.4916 15.1287 38.9984 14.5356 38.4084C14.469 38.3418 14.4024 38.2722 14.3326 38.1996ZM29.4235 43.7368C27.3746 44.4963 25.1354 44.8594 22.6329 44.8594C25.1354 44.8594 27.3714 44.4933 29.4235 43.7368ZM45.6214 131.383C45.5199 131.591 45.4025 131.815 45.2725 132.066C45.4025 131.815 45.5199 131.588 45.6214 131.383Z" fill="#50803C"/>
<path d="M11.859 94.7491C11.472 94.1742 11.6116 85.1876 12.0429 83.0544C12.728 79.6654 13.7874 76.4581 14.7198 74.9664C17.8693 69.9223 25.437 62.4334 31.5933 58.2699C32.6209 57.577 34.7745 56.1125 36.3793 55.0171C37.9842 53.9248 39.3734 53.0292 39.4686 53.0292C40.0617 53.0292 46.9316 48.1879 48.9995 46.3088C49.6941 45.6795 50.3538 45.1621 50.4585 45.1621C50.5663 45.1621 51.3466 44.3118 52.1934 43.2709C53.0434 42.2301 53.8173 41.3102 53.9156 41.2285C55.1431 40.2058 60.5794 29.5095 60.5794 28.1176C60.5794 26.9557 61.5055 27.2099 64.1444 29.0859C66.0886 30.4717 66.5168 31.6064 65.9744 33.9363C65.7588 34.8682 65.3781 36.0029 65.1339 36.4598C64.6106 37.4341 62.6632 42.3057 60.7475 47.4314C60.0021 49.4285 58.873 52.0004 58.2418 53.1472C57.1857 55.0595 56.7353 56.9627 57.3379 56.9627C57.7978 56.9627 59.1489 55.937 60.2527 54.7509C61.5277 53.3772 64.2046 51.5798 66.3772 50.6388C71.2648 48.5177 76.5837 49.4043 80.4627 52.9868C81.817 54.2365 82.1215 55.7524 81.0178 55.7524C80.7672 55.7524 80.5611 55.8765 80.5611 56.0278C80.5611 56.1791 82.2896 56.2819 84.4464 56.2547C88.1826 56.2093 88.4047 56.2426 90.2093 57.114C91.2402 57.6133 92.7848 58.6209 93.6379 59.3501C95.1255 60.627 97.0539 63.6498 97.0539 64.7058C97.0539 65.0265 97.7802 64.5545 99.1313 63.3502C102.75 60.1187 106.166 58.7873 111.412 58.5604C114.895 58.4121 115.307 58.4545 117.597 59.2261C121.663 60.5907 123.106 61.6528 125.71 65.199C127.382 67.4775 129.849 71.7681 129.614 71.995C129.529 72.0737 125.986 71.9708 121.742 71.765C117.495 71.5593 112.31 71.3535 110.216 71.3081C103.727 71.1659 102.985 71.0358 100.774 69.6621C97.7833 67.8042 95.0874 67.1265 91.5383 67.3383C86.6475 67.6318 83.2982 69.0872 81.9978 71.4867C81.5284 72.352 81.132 74.3733 81.132 75.8953C81.132 76.4672 81.0527 76.9331 80.9575 76.9331C80.8624 76.9331 80.1043 76.3249 79.2733 75.5836C78.4424 74.8423 77.3925 74.1464 76.9421 74.0374C76.4886 73.9315 76.1207 73.7348 76.1207 73.6078C76.1207 72.815 72.0863 73.2416 70.0152 74.2492C68.8099 74.8362 66.3392 77.0118 65.2576 78.44C64.5821 79.3356 64.4393 79.1934 63.2721 76.4793C62.3777 74.3914 61.1883 72.579 60.2654 71.8921C59.1711 71.0782 56.4403 69.9556 54.8576 69.6681C53.5065 69.4231 52.796 69.4594 51.3973 69.8436C48.121 70.7453 44.667 73.1388 42.8147 75.7954C42.3802 76.4187 41.952 76.9241 41.8664 76.918C41.7807 76.9089 41.2098 76.1464 40.5977 75.2235C39.107 72.9693 35.8528 70.0887 34.3399 69.6893C32.716 69.2597 31.8026 69.2869 29.8932 69.8285C26.6454 70.7484 23.3247 73.2265 21.6627 75.9679C21.1901 76.7486 20.708 77.4566 20.5875 77.5383C20.2069 77.8015 15.313 87.0091 14.7928 88.4312C13.1594 92.9215 12.1286 95.1455 11.859 94.7491ZM35.6816 113.654C35.1582 113.594 33.8452 113.467 32.7668 113.373L30.8003 113.198L30.3087 111.784C29.2843 108.828 28.5294 104.789 28.3328 101.224C28.1583 97.9958 28.2249 97.1637 28.8529 94.6735C29.7981 90.9275 30.5529 89.6658 32.3513 88.8185C33.6009 88.2285 33.9467 88.1892 35.136 88.4796C35.8814 88.6612 36.7378 89.1241 37.0391 89.5054C37.3404 89.8866 38.2094 91.0304 38.9738 92.0441C39.7382 93.0607 40.4835 93.9624 40.6294 94.0471C40.7753 94.1349 41.1115 93.7113 41.3748 93.1091C41.9869 91.7173 43.8487 90.1196 45.6185 89.4721C46.9189 88.994 47.0648 88.9971 48.2954 89.5266C50.2523 90.3708 52.4757 92.6583 53.3194 94.6977C54.3565 97.2152 54.3724 101.857 53.3511 103.99C52.7389 105.264 51.058 107.527 49.9605 108.553C47.3946 110.949 43.7028 112.765 40.4391 113.237C36.871 113.751 36.6807 113.766 35.6816 113.654ZM120.673 95.5359C120.401 92.7581 120.943 86.7822 121.609 85.2662C122.399 83.4598 125.165 82.7851 128.168 83.6656C129.446 84.0408 129.456 84.0559 129.272 85.2541C129.05 86.7005 126.833 90.9911 125.282 92.9821C123.55 95.206 121.432 97.6509 121.152 97.7507C121.013 97.8022 120.797 96.8037 120.673 95.5359ZM71.9975 97.9111C71.0301 97.5662 70.7288 96.7764 70.7288 94.5918C70.7288 91.5055 71.5756 88.5704 72.8792 87.1453C73.5706 86.3888 73.9703 86.4887 74.7188 87.6022C75.2199 88.3495 75.4673 89.5024 75.7623 92.4435C76.2539 97.315 76.0446 97.9323 73.8973 98.02C73.1139 98.0533 72.2576 98.0049 71.9975 97.9111ZM94.2786 86.8124C93.1876 84.5249 93.6126 79.5747 94.9288 79.2388C96.6384 78.8001 97.7389 79.0391 98.83 80.08C100.134 81.3236 100.254 82.6671 99.2265 84.5854C98.4653 86.0136 98.0022 86.4281 96.4608 87.0757C95.0113 87.6838 94.6751 87.6445 94.2786 86.8124ZM71.5281 116.602C71.4297 116.169 71.3219 114.922 71.2902 113.833C71.1919 110.641 72.8475 108.734 75.074 109.479C76.3078 109.893 76.977 111.258 77.2149 113.848C77.494 116.865 77.3037 117.074 74.1542 117.249C71.7311 117.385 71.7089 117.379 71.5281 116.602ZM103.61 97.4058L100.806 95.4572L102.398 94.9519C103.274 94.6735 104.641 93.9715 105.437 93.3936L106.886 92.3376L106.864 94.5434C106.851 95.7598 106.743 97.3362 106.626 98.0533L106.41 99.3544L103.61 97.4058ZM97.5804 110.25C97.2917 109.104 97.0539 107.999 97.0539 107.796C97.0539 107.594 97.9197 108.193 98.9759 109.125C100.032 110.06 101.066 110.828 101.275 110.837C101.716 110.853 98.9632 112.302 98.4526 112.32C98.2654 112.329 97.8722 111.397 97.5804 110.25Z" fill="#DD994A"/>
</svg>
