<svg width="66" height="56" viewBox="0 0 66 56" fill="none" xmlns="http://www.w3.org/2000/svg">
<ellipse cx="33" cy="34.5" rx="33" ry="21.5" fill="#92CB6E"/>
<path d="M23.5208 53.817C21.9215 54.4832 19.9298 53.973 18.585 52.551C18.1303 52.0696 17.9177 51.7276 17.7265 51.1655C17.4901 50.4694 17.4822 50.3576 17.61 49.5276C17.8159 48.1897 18.0998 47.5191 18.7908 46.7334C19.0034 46.491 19.0034 46.4899 18.68 46.4136C17.8939 46.2287 16.6939 45.4973 15.2495 44.3231C13.6548 43.0272 13.0689 42.3046 12.0962 40.4355C11.1857 38.6837 11.0477 38.1912 10.9776 36.4638C10.9222 35.096 10.9369 34.962 11.2796 33.7525C12.103 30.8409 12.9818 29.2972 15.0177 27.1835C16.7335 25.4018 17.2617 24.9934 19.5418 23.6909C20.2736 23.2726 21.4748 22.5101 22.7879 21.6293C23.4145 21.2087 25.0002 19.8918 25.7116 19.2002C28.1241 16.8552 29.2292 14.4394 29.176 11.6263C29.1432 9.86124 28.8118 8.74133 28.0133 7.69112C27.0349 6.40632 26.3631 6.00129 24.7107 5.69917C23.5841 5.49334 22.6725 5.57412 21.3515 5.99465C20.2091 6.35762 18.447 7.16104 17.6869 7.66346C16.6792 8.33076 15.262 9.81034 14.7779 10.7001C14.2678 11.6385 13.5473 13.7821 13.5473 14.3619C13.5473 14.8544 13.7453 15.4929 13.8979 15.4929C13.9534 15.4929 13.9997 15.5804 14.0009 15.6866C14.002 15.9544 14.5811 16.9139 14.9984 17.3388C15.4124 17.7604 16.039 18.0448 17.1293 18.306C17.8769 18.4853 18.007 18.4875 18.7761 18.3315C20.4342 17.9962 21.3899 17.476 22.4226 16.3462C23.2007 15.4929 23.868 13.9226 24.0795 12.4419L24.2175 11.4769L24.4392 11.7414C24.636 11.9794 24.653 12.1276 24.5964 13.169C24.4845 15.2539 23.8963 16.5332 22.4 17.9464C21.1321 19.1437 19.7036 19.6982 17.886 19.6982C15.5832 19.6982 13.7962 18.6624 12.6991 16.6925L12.2466 15.8803L12.2512 14.331C12.2557 12.5935 12.3733 12.1299 13.2363 10.4577C14.1309 8.72473 15.4226 7.1876 16.7674 6.2536C17.9097 5.46014 19.379 4.69102 20.2465 4.43096C20.6989 4.29485 21.1716 4.1366 21.2983 4.07795C21.425 4.0204 22.4916 3.93408 23.669 3.8876C25.5804 3.81235 25.8903 3.82453 26.5497 4.00823C28.5856 4.57372 29.1556 4.89797 29.9971 5.96698C31.1915 7.4864 31.6055 8.52442 31.7864 10.4555L31.9108 11.7857L33.0679 12.8923C33.7047 13.501 34.2815 14.1074 34.3482 14.2402C34.5643 14.6652 34.4817 15.2506 34.0677 16.2421C33.8449 16.7733 33.5452 17.507 33.4004 17.8722C33.2556 18.2374 32.9616 18.9102 32.7467 19.3662C32.3044 20.3046 31.8057 21.7742 31.8984 21.8661C31.9323 21.8993 32.2377 21.7731 32.5759 21.5861C33.7669 20.9276 35.1467 20.6964 36.2246 20.973C37.6542 21.3393 38.7389 22.0133 39.4402 22.9683L39.7806 23.4331L40.7352 23.4818C41.5247 23.5227 41.8199 23.5935 42.451 23.8979C43.3479 24.3295 44.0966 25.0488 44.3647 25.736C44.5671 26.255 44.6554 26.3137 44.8974 26.0879C45.3611 25.6574 46.4175 25.0798 47.3088 24.771C48.2611 24.4412 48.4296 24.418 49.9102 24.4102C51.3296 24.4025 51.5694 24.4291 52.222 24.6725C53.9118 25.3033 55.9081 27.4579 56.5652 29.3624C56.7642 29.939 56.8016 30.3197 56.805 31.8159C56.8084 33.4924 56.7914 33.6341 56.4826 34.4718C56.046 35.6603 55.2509 37.2019 54.6571 38.0131C53.7082 39.3078 51.5208 41.1758 49.0608 42.7926C48.0971 43.4256 46.81 44.0797 45.3985 44.6507C44.868 44.8654 44.2041 45.1619 43.9225 45.308C43.642 45.4541 43.3468 45.5957 43.2676 45.6223C43.1703 45.6555 43.2201 45.7662 43.4225 45.9676C43.5865 46.1291 43.841 46.5729 43.9881 46.9514C44.212 47.5313 44.255 47.8433 44.255 48.9135C44.255 50.1263 44.238 50.2171 43.8976 50.8545C43.2054 52.1504 41.5337 53.2293 40.2206 53.2293C39.3712 53.2293 38.5138 53.0468 37.7787 52.7103C37.0899 52.3949 36.2902 51.513 35.8559 50.5922C35.6037 50.0566 35.5822 49.8962 35.624 48.8216C35.6568 47.9617 35.7247 47.5379 35.874 47.2635L36.0798 46.8861L34.795 46.9624C30.5683 47.2148 29.3773 47.2457 27.7147 47.1484C26.7386 47.0908 25.9197 47.0632 25.896 47.0853C25.8722 47.1085 25.9695 47.4173 26.112 47.7714C26.3213 48.2926 26.3722 48.639 26.3778 49.583C26.3846 50.7151 26.3722 50.7748 25.9593 51.5926C25.4504 52.5997 24.6168 53.3599 23.5208 53.817ZM14.0439 37.9444C14.14 38.0894 14.5076 37.276 15.0901 35.6338C15.2756 35.1137 17.0207 31.7462 17.1565 31.6499C17.1994 31.62 17.3714 31.361 17.5399 31.0755C18.1326 30.0729 19.3167 29.1666 20.4749 28.8302C21.1558 28.6321 21.4816 28.6221 22.0606 28.7793C22.6001 28.9253 23.7606 29.9788 24.2922 30.8033C24.5105 31.1408 24.7141 31.4197 24.7446 31.423C24.7751 31.4252 24.9278 31.2404 25.0828 31.0124C25.7433 30.0408 26.975 29.1655 28.1434 28.8357C28.6421 28.6951 28.8955 28.6819 29.3773 28.7715C29.9417 28.8766 30.9155 29.2872 31.3057 29.5849C31.6349 29.8361 32.059 30.499 32.378 31.2626C32.7942 32.2552 32.8451 32.3072 33.086 31.9797C33.4717 31.4573 34.3528 30.6616 34.7825 30.447C35.5211 30.0784 36.9598 29.9224 36.9598 30.2124C36.9598 30.2588 37.091 30.3308 37.2527 30.3695C37.4133 30.4093 37.7877 30.6639 38.084 30.935C38.3804 31.2061 38.6507 31.4285 38.6846 31.4285C38.7186 31.4285 38.7468 31.2581 38.7468 31.049C38.7468 30.4923 38.8882 29.7531 39.0556 29.4366C39.5193 28.559 40.7137 28.0267 42.4578 27.9194C43.7234 27.8419 44.6848 28.0898 45.7513 28.7693C46.5397 29.2717 46.8043 29.3193 49.1184 29.3713C49.8649 29.3879 51.7142 29.4632 53.2286 29.5384C54.742 29.6137 56.0053 29.6513 56.0359 29.6225C56.1196 29.5395 55.2396 27.9703 54.6436 27.137C53.715 25.84 53.2003 25.4516 51.7504 24.9525C50.9337 24.6703 50.7867 24.6548 49.5448 24.709C47.6741 24.792 46.456 25.2789 45.1655 26.4608C44.6836 26.9013 44.4246 27.0739 44.4246 26.9566C44.4246 26.5704 43.737 25.4649 43.2065 24.9979C42.9023 24.7312 42.3514 24.3627 41.9839 24.1801C41.3403 23.8613 41.2611 23.8492 39.9288 23.8658C39.1597 23.8757 38.5432 23.8381 38.5432 23.7828C38.5432 23.7274 38.6168 23.6821 38.7061 23.6821C39.0997 23.6821 38.9911 23.1276 38.5082 22.6706C37.1249 21.3603 35.2282 21.0361 33.4852 21.8118C32.7105 22.156 31.7559 22.8134 31.3012 23.3158C30.9076 23.7496 30.4258 24.1247 30.2618 24.1247C30.0469 24.1247 30.2075 23.4286 30.5841 22.7293C30.8092 22.3098 31.2119 21.3692 31.4777 20.6388C32.1608 18.7642 32.8553 16.9825 33.0419 16.6261C33.129 16.459 33.2647 16.044 33.3416 15.7032C33.535 14.8511 33.3823 14.4361 32.689 13.9293C31.748 13.2431 31.4177 13.1502 31.4177 13.5751C31.4177 14.0842 29.4791 17.9962 29.0414 18.3702C29.0063 18.4001 28.7304 18.7365 28.4272 19.1172C28.1253 19.4979 27.847 19.8088 27.8086 19.8088C27.7712 19.8088 27.536 19.9981 27.2883 20.2282C26.5509 20.9155 24.101 22.6861 23.8895 22.6861C23.8556 22.6861 23.3602 23.0137 22.7879 23.4132C22.2156 23.8138 21.4476 24.3494 21.0812 24.6028C18.8858 26.1255 16.1872 28.8645 15.064 30.7092C14.7315 31.2548 14.3538 32.4278 14.1095 33.6673C13.9556 34.4475 13.9059 37.7342 14.0439 37.9444ZM27.1763 46.3682C27.1311 46.4401 27.8911 46.4788 29.3751 46.4788C31.4969 46.4788 31.6439 46.4656 31.6439 46.2763C31.6439 46.1657 31.567 45.5404 31.4731 44.8875C31.3465 44 31.3159 43.0361 31.3521 41.0773C31.4064 38.189 31.5908 36.5722 32.0488 34.9698C32.6709 32.7908 32.6573 32.4123 31.9075 31.1585C31.1621 29.9125 30.4156 29.4233 29.1477 29.3492C27.9081 29.2772 27.3019 29.5893 25.7818 31.0777C25.1393 31.7074 24.5964 32.2054 24.5772 32.1855C24.5568 32.1645 24.2786 31.7639 23.9585 31.2946C23.2686 30.2821 22.7008 29.7785 21.9555 29.5163C20.9658 29.1699 20.2872 29.3182 19.3416 30.0884C18.7919 30.5355 17.506 32.1324 17.506 32.367C17.506 32.4068 17.3827 32.5983 17.2311 32.7919C16.7063 33.4648 15.2925 36.7382 14.9758 38.0131C14.6207 39.4406 14.6241 39.4971 15.1217 40.4543C15.9972 42.1408 17.0513 43.1744 18.6178 43.8838L19.4378 44.2556L19.3484 43.4035C19.224 42.2172 19.2613 39.6265 19.4163 38.5664C19.4887 38.0795 19.6549 37.2827 19.7873 36.7957C19.9942 36.0355 20.1039 35.8363 20.5609 35.3848C21.0676 34.8846 21.123 34.8591 21.7145 34.8591C22.5119 34.8591 23.1023 35.2542 23.7346 36.2126C23.9811 36.5866 24.204 36.9119 24.2288 36.9363C24.2526 36.9606 24.3612 36.7991 24.4686 36.5766C24.5761 36.3553 24.99 35.9038 25.3893 35.5718C26.0215 35.0473 26.1765 34.9698 26.5984 34.9698C27.3957 34.9698 28.3888 35.211 28.934 35.5375C29.5232 35.8905 30.3353 36.8112 30.6373 37.4664C31.334 38.9814 31.3815 41.1681 30.7493 42.6056C30.6294 42.8801 30.5004 43.1777 30.4642 43.2696C30.0333 44.3497 28.106 46.2575 27.4466 46.2575C27.3358 46.2575 27.2148 46.3073 27.1763 46.3682ZM40.6357 43.3515C40.6357 45.2892 40.6583 45.5836 40.8053 45.5426C40.8992 45.5161 41.597 45.3434 42.3582 45.1586C43.1183 44.9749 43.9145 44.7536 44.126 44.6662L44.5117 44.509L44.3149 43.6956C44.2063 43.2486 44.0808 42.6355 44.0344 42.3345L43.9519 41.7856L44.782 42.506C45.239 42.9022 45.7751 43.3371 45.9742 43.4732L46.3361 43.72L47.5576 43.1036C49.0438 42.3555 50.0798 41.7435 50.0798 41.6152C50.0798 41.562 49.745 41.3385 49.3356 41.1183C48.925 40.8981 48.079 40.3337 47.4547 39.8634C46.8304 39.3941 46.2117 38.9349 46.0793 38.8441C45.947 38.7534 45.7728 38.6184 45.6925 38.5431C45.6134 38.469 45.3962 38.3207 45.2118 38.2145C44.7391 37.9411 44.7651 37.691 45.2571 37.7818C45.8475 37.8902 46.8609 37.4608 47.5124 36.8256C48.2736 36.0853 48.4014 35.719 48.4161 34.2571C48.4285 32.9856 48.2803 32.4179 47.5961 31.1065C47.3359 30.6063 45.8192 28.9939 45.61 28.9939C45.5285 28.9939 45.2096 28.87 44.9031 28.7195C43.271 27.9172 40.9343 28.1518 39.7863 29.233C39.3972 29.5993 39.3474 29.7121 39.2728 30.3883C39.1608 31.4186 39.2807 33.0011 39.5386 33.8632C39.7625 34.6157 39.8914 35.397 40.1844 37.7917C40.2816 38.583 40.4219 39.6542 40.4977 40.171C40.5735 40.6878 40.6357 42.1198 40.6357 43.3515ZM31.9448 45.9532L32.0126 46.3682H34.7859L34.8312 45.1785C34.8956 43.4854 35.2994 42.8048 36.3355 42.6399C36.6838 42.5846 36.7822 42.6277 37.1679 43.0062C37.5672 43.398 37.6181 43.5153 37.7413 44.3452C37.8149 44.8454 37.8443 45.4231 37.8047 45.6278L37.7334 46.0008L38.3928 45.9089C38.7559 45.858 39.3327 45.7783 39.6743 45.7319L40.2963 45.6478L40.3936 44.3751C40.4592 43.5131 40.4468 42.6941 40.3552 41.831C40.2794 41.1305 40.1776 40.1345 40.1267 39.6177C40.0769 39.1009 40.0057 38.5022 39.9695 38.2897C39.9333 38.0772 39.827 37.3303 39.7331 36.6298C39.5306 35.1203 39.3327 34.0712 39.2196 33.9185C39.1755 33.8576 39.0273 33.4891 38.8916 33.1007C38.757 32.7111 38.576 32.263 38.4901 32.1047C38.2673 31.6886 37.4382 30.8797 37.1114 30.7579C36.3615 30.4791 35.1083 30.7712 34.3573 31.3998C33.6232 32.0151 32.5985 34.1033 32.3146 35.5618C31.9063 37.6634 31.7254 39.2547 31.7129 40.835C31.7005 42.5569 31.8192 45.1785 31.9448 45.9532ZM22.5391 44.8587C22.8953 44.8997 22.9632 44.8941 24.2356 44.706C25.3995 44.5334 26.716 43.8694 27.631 42.9929C28.0223 42.6178 28.6218 41.79 28.8401 41.3241C29.2043 40.5439 29.1986 38.8464 28.8288 37.9256C28.5279 37.1798 27.7351 36.3431 27.0372 36.0344C26.5984 35.8407 26.5463 35.8396 26.0826 36.0145C25.4515 36.2513 24.7876 36.8356 24.5693 37.3446C24.4754 37.5649 24.3555 37.7198 24.3035 37.6877C24.2515 37.6567 23.9857 37.3269 23.7131 36.9551C23.4405 36.5844 23.1306 36.1661 23.0232 36.0266C22.9157 35.8872 22.6103 35.7179 22.3445 35.6515C21.9204 35.5452 21.7971 35.5596 21.3515 35.7754C20.7102 36.0853 20.441 36.5468 20.1039 37.9168C19.88 38.8275 19.8563 39.1319 19.9185 40.3127C19.9886 41.6163 20.2578 43.0936 20.6231 44.1748L20.7984 44.6916L21.4996 44.7558C21.8842 44.7901 22.3524 44.8366 22.5391 44.8587ZM49.3379 40.773C49.7077 40.9899 50.1307 41.167 50.2789 41.167C50.5537 41.167 51.2097 40.7653 51.8499 40.2053C52.2424 39.8622 52.3679 39.3288 52.36 38.0363C52.3555 37.1997 52.6495 33.893 52.7423 33.7459C52.7785 33.6883 52.9707 33.5555 53.1687 33.4526C53.6132 33.2224 55.6343 33.2014 55.9103 33.4249C56.0031 33.5002 56.1128 33.5312 56.1524 33.4913C56.3197 33.3286 56.3967 32.0804 56.2971 31.1519C56.2394 30.6041 56.1897 30.0563 56.1874 29.9346C56.1852 29.7675 56.1603 29.7498 56.0856 29.8638C56.0098 29.9811 55.7893 29.9988 55.0982 29.9434C54.6085 29.9036 52.8079 29.8228 51.0978 29.7642C49.3876 29.7055 47.682 29.6269 47.3088 29.5893L46.6302 29.5196L47.1108 30.0076C47.3755 30.2765 47.5915 30.5521 47.5915 30.6207C47.5915 30.6904 47.6356 30.7624 47.6899 30.7834C47.9003 30.8619 48.3787 31.9907 48.6106 32.9568C48.6751 33.2257 48.7237 33.4161 48.7565 33.6097C48.8515 34.1797 48.8051 34.7717 48.5993 37.4199C48.5891 37.556 48.5778 37.6988 48.5665 37.8471C48.4274 39.6299 48.4195 40.1433 48.528 40.2463C48.6038 40.3193 48.968 40.5561 49.3379 40.773ZM36.6714 39.5712C36.2529 39.7427 36.1749 39.7461 35.632 39.621C34.5959 39.3798 34.3539 38.4502 34.8187 36.5091C35.0789 35.4246 35.3899 34.8813 35.8808 34.65C36.2518 34.4762 36.4983 34.5692 36.6759 34.951C36.737 35.0827 36.8241 35.1911 36.8704 35.1911C36.9157 35.1911 37.0627 35.5452 37.1973 35.9768C37.3986 36.6242 37.4326 36.9518 37.3885 37.8316C37.3285 39.0577 37.2064 39.3532 36.6714 39.5712ZM52.8475 38.2322C52.8916 38.6959 52.9685 39.061 53.0183 39.0422C53.1178 39.0057 53.8733 38.1115 54.4909 37.2982C55.0439 36.57 55.8345 35.0008 55.9137 34.4718C55.9793 34.0336 55.9759 34.028 55.5201 33.8908C54.449 33.5688 53.4628 33.8156 53.1811 34.4762C52.9436 35.0307 52.7502 37.2163 52.8475 38.2322ZM44.0005 35.6282L43.9926 35.6305C43.6827 35.7146 43.5458 35.7522 43.4305 35.7168C43.3377 35.688 43.2608 35.6116 43.1183 35.4733C42.8152 35.1756 42.788 34.9941 42.8367 33.5312C42.883 32.1047 43.09 31.8712 44.3093 31.8712C44.7956 31.8712 45.4256 32.2408 45.6371 32.6492C45.8294 33.0199 45.8158 33.8565 45.6122 34.1951C45.5206 34.3479 45.4166 34.5515 45.3792 34.6489C45.3419 34.7463 45.1134 34.9454 44.8714 35.0915C44.6294 35.2376 44.4292 35.3925 44.428 35.4346C44.4258 35.4777 44.2335 35.5641 44.0005 35.6282ZM35.4894 39.1009C35.5822 39.1352 35.8876 39.1529 36.1669 39.1407C36.9326 39.1086 37.0073 38.8829 36.832 37.1012C36.7268 36.0255 36.6386 35.6039 36.4599 35.3306C36.1929 34.9233 36.0504 34.8868 35.8039 35.1635C35.339 35.6847 35.037 36.7581 35.037 37.8869C35.037 38.6859 35.1445 38.9747 35.4894 39.1009ZM38.3453 51.8604C38.9764 52.1471 40.2319 52.1935 40.9184 51.9567C41.5439 51.7409 42.2055 51.1323 42.5686 50.4384C42.9441 49.7213 42.9464 48.6412 42.5754 47.8621C42.3141 47.3133 41.9884 46.9447 41.8685 47.0609C41.8346 47.0952 41.8866 47.2734 41.985 47.4593C42.2757 48.0093 42.2214 49.1968 41.8753 49.8762C41.3098 50.9873 40.0419 51.6402 38.6416 51.5428C38.2141 51.513 37.8646 51.5229 37.8646 51.565C37.8646 51.607 38.0806 51.7398 38.3453 51.8604ZM43.435 35.0417C43.5764 35.3461 43.6962 35.3604 44.2131 35.138C44.7628 34.9012 44.9279 34.7496 45.1994 34.2272C45.5659 33.5256 45.5229 33.0343 45.058 32.5795C44.6689 32.1988 44.2765 32.1113 43.6668 32.2718C43.1975 32.3946 43.0459 34.2051 43.435 35.0417ZM35.3221 45.9366C35.3865 46.221 35.3944 46.2232 36.2585 46.1734C37.3817 46.1092 37.4495 46.0329 37.35 44.9296C37.2652 43.9823 37.0265 43.4832 36.5865 43.3316C35.7926 43.0593 35.2022 43.7565 35.2372 44.924C35.2485 45.3224 35.287 45.7783 35.3221 45.9366ZM21.0936 52.302C22.219 52.6716 23.462 52.4702 24.0931 51.8162C24.7039 51.1832 25.0194 50.4616 25.024 49.6881C25.0274 48.9201 24.8984 48.1388 24.7672 48.1388C24.7242 48.1388 24.679 48.4874 24.6688 48.9135C24.6247 50.6896 23.7481 51.804 22.2608 51.9766C21.4261 52.074 20.7724 51.9324 20.1266 51.5163C19.4491 51.0803 19.3722 51.1444 19.9343 51.6778C20.1797 51.9091 20.6174 52.1448 21.0936 52.302ZM46.7625 38.9161L47.7612 39.6287L47.8381 39.1529C47.88 38.8906 47.9184 38.3141 47.9229 37.8692L47.9308 37.0625L47.414 37.4487C47.1301 37.66 46.6426 37.9168 46.3304 38.0186L45.7626 38.2034L46.7625 38.9161ZM38.1474 47.0875C38.3227 47.1462 38.9459 47.041 40.2398 46.7345C41.6706 46.397 42.2361 46.1867 42.3243 45.9598C42.3752 45.8326 42.3424 45.8104 42.192 45.8702C41.0688 46.3184 39.8145 46.5508 37.9494 46.6537C37.281 46.6913 36.7336 46.7633 36.7336 46.8131C36.7336 46.864 37.0265 46.9381 37.3839 46.9768C37.7413 47.0167 38.0852 47.0665 38.1474 47.0875ZM44.6124 43.6138C44.7164 44.0332 44.8567 44.374 44.9234 44.3707C45.1055 44.3641 46.0873 43.834 45.93 43.8284C45.8554 43.8251 45.4867 43.544 45.11 43.2021C44.7334 42.8612 44.4246 42.6421 44.4246 42.7163C44.4246 42.7904 44.5095 43.1943 44.6124 43.6138ZM21.1456 47.01C21.77 47.1561 22.4667 47.228 23.2177 47.2258L24.3487 47.2214L23.3308 47.124C22.7709 47.0709 21.8638 46.9481 21.3164 46.8518C20.7679 46.7555 20.294 46.7024 20.2612 46.7334C20.2295 46.7655 20.6276 46.8894 21.1456 47.01Z" fill="#1B1C0F"/>
<path d="M27.1759 46.3682C27.2143 46.3073 27.3353 46.2575 27.4462 46.2575C28.1056 46.2575 30.0329 44.3497 30.4638 43.2696C30.5 43.1777 30.6289 42.88 30.7488 42.6056C31.3811 41.1681 31.3336 38.9813 30.6368 37.4664C30.3349 36.8112 29.5228 35.8905 28.9335 35.5375C28.3883 35.211 27.3953 34.9698 26.5979 34.9698C26.176 34.9698 26.0211 35.0472 25.3888 35.5718C24.9896 35.9038 24.5756 36.3553 24.4682 36.5766C24.3607 36.7991 24.2521 36.9606 24.2284 36.9363C24.2035 36.9119 23.9807 36.5866 23.7341 36.2125C23.1019 35.2542 22.5115 34.8591 21.7141 34.8591C21.1226 34.8591 21.0671 34.8846 20.5604 35.3848C20.1035 35.8363 19.9938 36.0355 19.7868 36.7957C19.6545 37.2827 19.4882 38.0794 19.4158 38.5664C19.2609 39.6265 19.2235 42.2172 19.348 43.4035L19.4373 44.2556L18.6173 43.8838C17.0508 43.1744 15.9967 42.1408 15.1213 40.4543C14.6236 39.497 14.6202 39.4406 14.9754 38.013C15.2921 36.7382 16.7059 33.4647 17.2307 32.7919C17.3822 32.5982 17.5055 32.4068 17.5055 32.367C17.5055 32.1324 18.7915 30.5355 19.3412 30.0884C20.2867 29.3182 20.9653 29.1699 21.955 29.5163C22.7004 29.7785 23.2681 30.2821 23.9581 31.2946C24.2782 31.7638 24.5564 32.1644 24.5767 32.1855C24.596 32.2054 25.1389 31.7074 25.7813 31.0777C27.3014 29.5893 27.9076 29.2772 29.1473 29.3492C30.4152 29.4233 31.1616 29.9124 31.907 31.1585C32.6569 32.4123 32.6704 32.7908 32.0484 34.9698C31.5903 36.5722 31.4059 38.189 31.3517 41.0773C31.3155 43.0361 31.346 44 31.4727 44.8875C31.5666 45.5404 31.6435 46.1657 31.6435 46.2763C31.6435 46.4656 31.4964 46.4788 29.3746 46.4788C27.8907 46.4788 27.1306 46.4401 27.1759 46.3682ZM40.6352 43.3515C40.6352 42.1198 40.573 40.6878 40.4972 40.171C40.4214 39.6542 40.2812 38.583 40.1839 37.7917C39.891 35.3969 39.762 34.6157 39.5381 33.8631C39.2802 33.0011 39.1603 31.4186 39.2723 30.3883C39.347 29.7121 39.3967 29.5993 39.7858 29.233C40.9338 28.1518 43.2705 27.9172 44.9026 28.7195C45.2091 28.87 45.5281 28.9939 45.6095 28.9939C45.8187 28.9939 47.3355 30.6063 47.5956 31.1065C48.2799 32.4179 48.428 32.9856 48.4156 34.2571C48.4009 35.719 48.2731 36.0853 47.5119 36.8256C46.8604 37.4608 45.847 37.8902 45.2566 37.7817C44.7646 37.691 44.7386 37.9411 45.2114 38.2144C45.3957 38.3207 45.6129 38.469 45.6921 38.5431C45.7724 38.6184 45.9466 38.7534 46.0789 38.8441C46.2112 38.9349 46.8299 39.3941 47.4542 39.8633C48.0786 40.3337 48.9246 40.898 49.3351 41.1183C49.7446 41.3385 50.0794 41.562 50.0794 41.6151C50.0794 41.7435 49.0433 42.3555 47.5572 43.1036L46.3356 43.72L45.9737 43.4732C45.7746 43.3371 45.2385 42.9022 44.7816 42.506L43.9514 41.7856L44.034 42.3345C44.0803 42.6355 44.2059 43.2485 44.3145 43.6956L44.5113 44.509L44.1256 44.6662C43.9141 44.7536 43.1178 44.9749 42.3578 45.1586C41.5966 45.3434 40.8987 45.5161 40.8049 45.5426C40.6578 45.5836 40.6352 45.2892 40.6352 43.3515ZM31.9443 45.9532C31.8188 45.1785 31.7 42.5569 31.7125 40.835C31.7249 39.2547 31.9059 37.6633 32.3142 35.5618C32.5981 34.1033 33.6228 32.015 34.3568 31.3998C35.1078 30.7712 36.361 30.479 37.1109 30.7579C37.4378 30.8796 38.2668 31.6886 38.4896 32.1047C38.5756 32.2629 38.7566 32.7111 38.8911 33.1007C39.0269 33.4891 39.175 33.8576 39.2191 33.9185C39.3323 34.0712 39.5302 35.1203 39.7326 36.6297C39.8265 37.3302 39.9328 38.0772 39.969 38.2897C40.0052 38.5022 40.0765 39.1009 40.1262 39.6177C40.1771 40.1345 40.2789 41.1304 40.3547 41.8309C40.4463 42.6941 40.4588 43.513 40.3932 44.3751L40.2959 45.6477L39.6738 45.7318C39.3323 45.7783 38.7554 45.858 38.3924 45.9089L37.733 46.0008L37.8042 45.6278C37.8438 45.4231 37.8144 44.8454 37.7409 44.3452C37.6176 43.5152 37.5667 43.3979 37.1674 43.0062C36.7818 42.6277 36.6834 42.5846 36.335 42.6399C35.299 42.8048 34.8952 43.4854 34.8307 45.1785L34.7855 46.3682H32.0122L31.9443 45.9532ZM49.3374 40.773C48.9676 40.5561 48.6034 40.3193 48.5276 40.2462C48.419 40.1433 48.4269 39.6298 48.566 37.847C48.5773 37.6988 48.5887 37.556 48.5988 37.4199V37.4188C48.8047 34.7717 48.8511 34.1796 48.756 33.6097C48.7232 33.4161 48.6746 33.2257 48.6101 32.9568C48.3783 31.9907 47.8999 30.8619 47.6895 30.7834C47.6352 30.7623 47.5911 30.6904 47.5911 30.6207C47.5911 30.5521 47.3751 30.2765 47.1104 30.0076L46.6297 29.5196L47.3083 29.5893C47.6816 29.6269 49.3872 29.7055 51.0973 29.7641C52.8074 29.8228 54.608 29.9036 55.0978 29.9434C55.7888 29.9987 56.0094 29.981 56.0852 29.8637C56.1598 29.7498 56.1847 29.7675 56.187 29.9346C56.1892 30.0563 56.239 30.6041 56.2967 31.1519C56.3962 32.0803 56.3193 33.3286 56.1519 33.4913C56.1123 33.5311 56.0026 33.5002 55.9099 33.4249C55.6339 33.2014 53.6127 33.2224 53.1682 33.4526C52.9703 33.5555 52.778 33.6883 52.7418 33.7458C52.6491 33.893 52.355 37.1997 52.3595 38.0363C52.3674 39.3288 52.2419 39.8622 51.8494 40.2053C51.2093 40.7652 50.5533 41.167 50.2784 41.167C50.1303 41.167 49.7073 40.9899 49.3374 40.773ZM36.6709 39.5712C37.2059 39.3532 37.3281 39.0577 37.388 37.8315C37.4321 36.9518 37.3982 36.6242 37.1969 35.9768C37.0623 35.5452 36.9152 35.1911 36.87 35.1911C36.8236 35.1911 36.7365 35.0827 36.6754 34.951C36.4979 34.5692 36.2513 34.4762 35.8803 34.65C35.3895 34.8812 35.0784 35.4246 34.8183 36.5091C34.3534 38.4502 34.5955 39.3797 35.6315 39.621C36.1744 39.746 36.2524 39.7427 36.6709 39.5712ZM44 35.6282C44.233 35.564 44.4253 35.4777 44.4276 35.4346C44.4287 35.3925 44.6289 35.2376 44.8709 35.0915C45.113 34.9454 45.3414 34.7462 45.3788 34.6489C45.4161 34.5515 45.5202 34.3478 45.6118 34.1951C45.8154 33.8565 45.8289 33.0199 45.6366 32.6492C45.4251 32.2408 44.7952 31.8712 44.3088 31.8712C43.0896 31.8712 42.8826 32.1047 42.8362 33.5311C42.7876 34.9941 42.8147 35.1756 43.1178 35.4733C43.2603 35.6116 43.3373 35.688 43.43 35.7168C43.5454 35.7522 43.6822 35.7145 43.9921 35.6304L44 35.6282ZM38.3449 51.8604C38.0802 51.7398 37.8642 51.607 37.8642 51.5649C37.8642 51.5229 38.2137 51.5129 38.6412 51.5428C40.0414 51.6402 41.3093 50.9873 41.8748 49.8762C42.2209 49.1967 42.2752 48.0093 41.9845 47.4593C41.8861 47.2734 41.8341 47.0952 41.868 47.0609C41.9879 46.9447 42.3137 47.3132 42.5749 47.8621C42.9459 48.6412 42.9437 49.7213 42.5681 50.4384C42.2051 51.1322 41.5434 51.7409 40.918 51.9567C40.2314 52.1935 38.976 52.147 38.3449 51.8604ZM21.0932 52.302C20.617 52.1448 20.1793 51.9091 19.9338 51.6778C19.3717 51.1444 19.4486 51.0802 20.1261 51.5163C20.7719 51.9323 21.4257 52.074 22.2604 51.9766C23.7477 51.804 24.6242 50.6896 24.6684 48.9134C24.6785 48.4874 24.7238 48.1388 24.7668 48.1388C24.898 48.1388 25.0269 48.9201 25.0235 49.6881C25.019 50.4616 24.7034 51.1832 24.0927 51.8162C23.4615 52.4702 22.2185 52.6716 21.0932 52.302ZM38.1469 47.0875C38.0847 47.0665 37.7409 47.0167 37.3835 46.9768C37.0261 46.9381 36.7331 46.8639 36.7331 46.813C36.7331 46.7632 37.2805 46.6913 37.949 46.6537C39.8141 46.5508 41.0684 46.3184 42.1915 45.8702C42.3419 45.8104 42.3747 45.8326 42.3238 45.9598C42.2356 46.1867 41.6701 46.3969 40.2393 46.7345C38.9454 47.041 38.3222 47.1461 38.1469 47.0875ZM23.4152 14.7404C23.5577 14.3287 23.6369 13.8164 23.845 12.3113C23.9219 11.7481 24.0214 11.2877 24.0644 11.2877C24.1085 11.2877 24.2408 11.3928 24.3596 11.5212C24.4399 11.6097 24.4919 11.6983 24.5236 11.8587C24.4998 11.8189 24.4716 11.7812 24.4388 11.7414L24.2171 11.4769L24.0791 12.4419C23.9682 13.2221 23.7296 14.0277 23.4152 14.7404ZM21.1452 47.01C20.6272 46.8894 20.229 46.7654 20.2607 46.7334C20.2935 46.7024 20.7674 46.7555 21.316 46.8518C21.8634 46.948 22.7705 47.0709 23.3303 47.124L24.3483 47.2214L23.2172 47.2258C22.4662 47.228 21.7695 47.1561 21.1452 47.01ZM13.9597 12.6987C13.7143 13.6836 13.7097 14.6585 13.9597 15.5328C13.9416 15.5084 13.9201 15.4929 13.8975 15.4929C13.7448 15.4929 13.5469 14.8544 13.5469 14.3619C13.5469 14.0764 13.7211 13.4124 13.9597 12.6987ZM28.5173 47.186C27.1408 47.2015 26.0799 47.238 26.0426 47.2745C26.0019 47.3143 26.055 47.5921 26.1625 47.902C26.1466 47.8599 26.1297 47.8156 26.1116 47.7714C25.9691 47.4173 25.8718 47.1085 25.8955 47.0853C25.9193 47.0631 26.7382 47.0908 27.7142 47.1483C27.9902 47.1638 28.2515 47.1771 28.5173 47.186ZM24.51 14.0731C24.398 15.0381 24.1198 15.8039 23.5927 16.5686C24.0847 15.8271 24.3698 15.0403 24.51 14.0731ZM33.823 47.02C33.7359 47.0266 33.6499 47.0344 33.5662 47.0421C33.2009 47.0753 32.5087 47.1085 31.6932 47.1329C32.2938 47.1052 32.9905 47.0676 33.823 47.02ZM15.5058 9.68417C15.1677 10.1003 14.877 10.5352 14.6361 10.9778C14.6847 10.8771 14.7322 10.7842 14.7774 10.7001C14.9358 10.4079 15.1948 10.0538 15.5058 9.68417ZM18.2226 7.34694C17.5994 7.70328 17.0802 8.09393 16.5181 8.61847C16.9196 8.24 17.3291 7.90026 17.6865 7.66344C17.8324 7.56717 18.0145 7.45982 18.2226 7.34694ZM13.9993 15.6667C14.0773 15.9101 14.1746 16.1447 14.2934 16.3694C14.1226 16.0761 14.0016 15.8094 14.0004 15.6866C14.0004 15.6799 14.0004 15.6733 13.9993 15.6667ZM36.0602 46.9215L35.472 46.9226L36.0794 46.8861L36.0602 46.9215ZM26.3491 48.7707C26.3728 49.0152 26.3841 49.2985 26.3841 49.6383C26.3841 50.1717 26.3796 50.4594 26.3231 50.715C26.3796 50.455 26.3807 50.1562 26.3774 49.583C26.3751 49.2487 26.3672 48.9887 26.3491 48.7707ZM22.2151 5.7556C23.1087 5.55197 23.8461 5.54202 24.7102 5.69916C23.8778 5.54755 23.1188 5.55197 22.2151 5.7556ZM21.5591 5.92934C21.1226 6.06214 20.6464 6.23699 20.1137 6.4561C20.5536 6.2735 20.9846 6.11083 21.351 5.99463C21.4223 5.97139 21.4913 5.95037 21.5591 5.92934ZM20.8918 17.6044C20.3026 17.9353 19.633 18.1577 18.7757 18.3314C19.6273 18.1588 20.3003 17.9342 20.8918 17.6044ZM14.9256 17.2624C14.9505 17.2879 14.9742 17.3133 14.9991 17.3388C15.2106 17.5546 15.4776 17.735 15.835 17.8943C15.4776 17.735 15.2095 17.5546 14.998 17.3388C14.9742 17.3144 14.9505 17.289 14.9256 17.2624ZM20.3071 19.2876C19.5764 19.5654 18.7779 19.6981 17.8855 19.6981C18.7779 19.6981 19.5753 19.5642 20.3071 19.2876ZM26.0833 51.3425C26.0471 51.4189 26.0052 51.5008 25.9589 51.5926C26.0052 51.5008 26.0471 51.4178 26.0833 51.3425Z" fill="#50803C"/>
<path d="M14.0447 37.9445C13.9067 37.7342 13.9565 34.4475 14.1103 33.6673C14.3546 32.4279 14.7324 31.2548 15.0649 30.7092C16.188 28.8645 18.8867 26.1255 21.082 24.6028C21.4485 24.3494 22.2164 23.8138 22.7887 23.4132C23.361 23.0137 23.8564 22.6861 23.8904 22.6861C24.1019 22.6861 26.5517 20.9155 27.2891 20.2283C27.5368 19.9981 27.7721 19.8088 27.8094 19.8088C27.8479 19.8088 28.1261 19.4979 28.4281 19.1172C28.7312 18.7365 29.0072 18.4001 29.0422 18.3702C29.48 17.9962 31.4185 14.0842 31.4185 13.5751C31.4185 13.1502 31.7488 13.2431 32.6898 13.9293C33.3832 14.4361 33.5358 14.8511 33.3424 15.7032C33.2655 16.044 33.1298 16.459 33.0427 16.6261C32.8561 16.9825 32.1616 18.7642 31.4785 20.6388C31.2127 21.3692 30.8101 22.3098 30.585 22.7293C30.2083 23.4287 30.0477 24.1247 30.2626 24.1247C30.4266 24.1247 30.9085 23.7496 31.3021 23.3158C31.7567 22.8134 32.7113 22.156 33.4861 21.8119C35.229 21.0361 37.1258 21.3603 38.509 22.6706C38.992 23.1276 39.1005 23.6821 38.7069 23.6821C38.6176 23.6821 38.5441 23.7274 38.5441 23.7828C38.5441 23.8381 39.1605 23.8757 39.9296 23.8658C41.262 23.8492 41.3411 23.8614 41.9847 24.1801C42.3523 24.3627 42.9031 24.7312 43.2073 24.9979C43.7378 25.4649 44.4255 26.5704 44.4255 26.9566C44.4255 27.0739 44.6845 26.9013 45.1663 26.4608C46.4568 25.279 47.6749 24.792 49.5457 24.709C50.7876 24.6548 50.9346 24.6703 51.7512 24.9525C53.2012 25.4516 53.7158 25.84 54.6444 27.137C55.2404 27.9703 56.1204 29.5395 56.0367 29.6225C56.0062 29.6513 54.7428 29.6137 53.2295 29.5384C51.715 29.4632 49.8658 29.3879 49.1193 29.3713C46.8052 29.3193 46.5405 29.2717 45.7522 28.7693C44.6856 28.0898 43.7242 27.8419 42.4586 27.9194C40.7145 28.0267 39.5202 28.559 39.0564 29.4366C38.889 29.7531 38.7477 30.4923 38.7477 31.049C38.7477 31.2581 38.7194 31.4286 38.6855 31.4286C38.6515 31.4286 38.3812 31.2061 38.0849 30.935C37.7885 30.6639 37.4142 30.4093 37.2536 30.3695C37.0918 30.3308 36.9606 30.2588 36.9606 30.2124C36.9606 29.9224 35.5219 30.0785 34.7834 30.447C34.3536 30.6617 33.4725 31.4573 33.0868 31.9797C32.8459 32.3072 32.795 32.2552 32.3788 31.2626C32.0598 30.499 31.6357 29.8361 31.3066 29.5849C30.9164 29.2872 29.9425 28.8766 29.3782 28.7715C28.8963 28.6819 28.643 28.6952 28.1442 28.8357C26.9758 29.1655 25.7441 30.0408 25.0836 31.0125C24.9287 31.2404 24.776 31.4252 24.7454 31.423C24.7149 31.4197 24.5113 31.1408 24.293 30.8033C23.7614 29.9789 22.601 28.9253 22.0615 28.7793C21.4824 28.6221 21.1567 28.6321 20.4758 28.8302C19.3176 29.1666 18.1334 30.0729 17.5407 31.0755C17.3722 31.361 17.2003 31.62 17.1573 31.6499C17.0216 31.7462 15.2764 35.1137 15.0909 35.6338C14.5084 37.276 14.1408 38.0894 14.0447 37.9445ZM22.5399 44.8587C22.3533 44.8366 21.885 44.7901 21.5005 44.7558L20.7992 44.6916L20.6239 44.1748C20.2586 43.0936 19.9894 41.6163 19.9193 40.3127C19.8571 39.1319 19.8808 38.8275 20.1048 37.9168C20.4418 36.5468 20.711 36.0853 21.3523 35.7754C21.798 35.5596 21.9212 35.5453 22.3454 35.6515C22.6112 35.7179 22.9165 35.8872 23.024 36.0266C23.1314 36.1661 23.4413 36.5844 23.7139 36.9551C23.9865 37.3269 24.2523 37.6567 24.3043 37.6877C24.3564 37.7198 24.4762 37.5649 24.5701 37.3447C24.7884 36.8356 25.4523 36.2513 26.0834 36.0145C26.5472 35.8396 26.5992 35.8407 27.038 36.0344C27.7359 36.3431 28.5287 37.1798 28.8296 37.9256C29.1995 38.8464 29.2051 40.5439 28.8409 41.3241C28.6226 41.79 28.0232 42.6178 27.6318 42.9929C26.7168 43.8694 25.4003 44.5334 24.2365 44.706C22.964 44.8942 22.8962 44.8997 22.5399 44.8587ZM52.8483 38.2322C52.751 37.2163 52.9444 35.0307 53.182 34.4762C53.4636 33.8156 54.4498 33.5688 55.5209 33.8908C55.9767 34.0281 55.9801 34.0336 55.9145 34.4718C55.8354 35.0008 55.0448 36.57 54.4917 37.2982C53.8742 38.1116 53.1186 39.0057 53.0191 39.0422C52.9693 39.061 52.8924 38.6959 52.8483 38.2322ZM35.4903 39.1009C35.1453 38.9747 35.0379 38.6859 35.0379 37.8869C35.0379 36.7581 35.3399 35.6847 35.8047 35.1635C36.0513 34.8868 36.1938 34.9233 36.4607 35.3306C36.6394 35.6039 36.7276 36.0255 36.8328 37.1012C37.0081 38.8829 36.9335 39.1086 36.1678 39.1407C35.8884 39.1529 35.583 39.1352 35.4903 39.1009ZM43.4358 35.0417C43.0467 34.2051 43.1983 32.3947 43.6677 32.2718C44.2773 32.1114 44.6698 32.1988 45.0589 32.5795C45.5237 33.0343 45.5667 33.5256 45.2002 34.2272C44.9288 34.7496 44.7637 34.9012 44.214 35.138C43.6971 35.3604 43.5772 35.3461 43.4358 35.0417ZM35.3229 45.9366C35.2878 45.7784 35.2494 45.3224 35.2381 44.924C35.203 43.7565 35.7934 43.0593 36.5874 43.3316C37.0274 43.4832 37.266 43.9823 37.3508 44.9296C37.4504 46.0329 37.3825 46.1092 36.2594 46.1734C35.3953 46.2232 35.3874 46.221 35.3229 45.9366ZM46.7633 38.9161L45.7635 38.2034L46.3313 38.0186C46.6434 37.9168 47.1309 37.66 47.4148 37.4487L47.9317 37.0625L47.9238 37.8692C47.9192 38.3141 47.8808 38.8906 47.8389 39.1529L47.762 39.6288L46.7633 38.9161ZM44.6132 43.6138C44.5103 43.1943 44.4255 42.7904 44.4255 42.7163C44.4255 42.6421 44.7342 42.8613 45.1109 43.2021C45.4875 43.5441 45.8562 43.8251 45.9309 43.8285C46.0881 43.834 45.1064 44.3641 44.9243 44.3707C44.8575 44.374 44.7173 44.0332 44.6132 43.6138Z" fill="#DD994A"/>
</svg>
